<svg width="69" height="97" viewBox="0 0 69 97" fill="none" xmlns="http://www.w3.org/2000/svg">
<path d="M66.076 40.605H60.376V26.338C60.376 11.815 48.56 0 34.038 0C19.515 0 7.7 11.815 7.7 26.338V40.605H2C0.896 40.605 0 41.501 0 42.605V94.668C0 95.772 0.896 96.668 2 96.668H66.076C67.18 96.668 68.076 95.772 68.076 94.668V42.605C68.076 41.5 67.182 40.605 66.076 40.605ZM29.662 74.2C28.36 72.982 27.642 71.329 27.642 69.544C27.642 66.018 30.511 63.148 34.038 63.148C37.564 63.148 40.434 66.017 40.434 69.544C40.434 71.329 39.717 72.982 38.414 74.2C38.01 74.578 37.78 75.107 37.78 75.661V82.443C37.78 84.506 36.101 86.185 34.037 86.185C31.973 86.185 30.294 84.506 30.294 82.443V75.661C30.295 75.107 30.066 74.578 29.662 74.2ZM34.038 14.197C40.732 14.197 46.178 19.643 46.178 26.338V40.605H21.898V26.338C21.898 19.644 27.344 14.197 34.038 14.197Z" fill="white"/>
</svg>
