<svg width="25" height="25" viewBox="0 0 25 25" fill="none" xmlns="http://www.w3.org/2000/svg">
<path d="M10.18 11.298V1.883C10.18 0.844 11.024 0 12.063 0C13.102 0 13.946 0.844 13.946 1.883V11.298C13.946 12.337 13.102 13.181 12.063 13.181C11.024 13.181 10.18 12.337 10.18 11.298ZM19.527 2.761C18.917 2.278 18.027 2.384 17.544 2.995C17.061 3.607 17.166 4.495 17.778 4.979C20.018 6.746 21.302 9.392 21.302 12.24C21.302 17.334 17.157 21.479 12.064 21.479C6.97 21.479 2.825 17.334 2.825 12.24C2.825 9.393 4.108 6.748 6.346 4.982C6.958 4.499 7.063 3.611 6.58 2.998C6.097 2.386 5.21 2.282 4.596 2.764C1.675 5.069 0 8.523 0 12.24C0 18.892 5.412 24.303 12.063 24.303C18.714 24.303 24.126 18.891 24.126 12.24C24.126 8.521 22.449 5.067 19.527 2.761Z" fill="white"/>
</svg>
